<mxfile host="app.diagrams.net" modified="2022-08-20T06:53:55.390Z" agent="5.0 (Windows NT 10.0; Win64; x64) AppleWebKit/537.36 (KHTML, like Gecko) Chrome/104.0.5112.81 Safari/537.36 Edg/104.0.1293.47" etag="diA9ah_HxiQ13H650qy8" version="20.2.3" type="github">
  <diagram id="C5RBs43oDa-KdzZeNtuy" name="Page-1">
    <mxGraphModel dx="3169" dy="993" grid="1" gridSize="10" guides="1" tooltips="1" connect="1" arrows="1" fold="1" page="1" pageScale="1" pageWidth="827" pageHeight="1169" math="0" shadow="0">
      <root>
        <mxCell id="WIyWlLk6GJQsqaUBKTNV-0" />
        <mxCell id="WIyWlLk6GJQsqaUBKTNV-1" parent="WIyWlLk6GJQsqaUBKTNV-0" />
        <mxCell id="5fYRm7a2BufOGM3k-XQA-31" value="设备" style="swimlane;fontStyle=1;align=center;verticalAlign=top;childLayout=stackLayout;horizontal=1;startSize=26;horizontalStack=0;resizeParent=1;resizeParentMax=0;resizeLast=0;collapsible=1;marginBottom=0;" vertex="1" parent="WIyWlLk6GJQsqaUBKTNV-1">
          <mxGeometry x="-760" y="400" width="160" height="266" as="geometry" />
        </mxCell>
        <mxCell id="5fYRm7a2BufOGM3k-XQA-32" value="设备id" style="text;strokeColor=default;fillColor=none;align=left;verticalAlign=top;spacingLeft=4;spacingRight=4;overflow=hidden;rotatable=0;points=[[0,0.5],[1,0.5]];portConstraint=eastwest;" vertex="1" parent="5fYRm7a2BufOGM3k-XQA-31">
          <mxGeometry y="26" width="160" height="26" as="geometry" />
        </mxCell>
        <mxCell id="5fYRm7a2BufOGM3k-XQA-35" value="+ field: type" style="text;strokeColor=none;fillColor=none;align=left;verticalAlign=top;spacingLeft=4;spacingRight=4;overflow=hidden;rotatable=0;points=[[0,0.5],[1,0.5]];portConstraint=eastwest;" vertex="1" parent="5fYRm7a2BufOGM3k-XQA-31">
          <mxGeometry y="52" width="160" height="26" as="geometry" />
        </mxCell>
        <mxCell id="5fYRm7a2BufOGM3k-XQA-36" value="+ field: type" style="text;strokeColor=none;fillColor=none;align=left;verticalAlign=top;spacingLeft=4;spacingRight=4;overflow=hidden;rotatable=0;points=[[0,0.5],[1,0.5]];portConstraint=eastwest;" vertex="1" parent="5fYRm7a2BufOGM3k-XQA-31">
          <mxGeometry y="78" width="160" height="26" as="geometry" />
        </mxCell>
        <mxCell id="5fYRm7a2BufOGM3k-XQA-37" value="+ field: type" style="text;strokeColor=none;fillColor=none;align=left;verticalAlign=top;spacingLeft=4;spacingRight=4;overflow=hidden;rotatable=0;points=[[0,0.5],[1,0.5]];portConstraint=eastwest;" vertex="1" parent="5fYRm7a2BufOGM3k-XQA-31">
          <mxGeometry y="104" width="160" height="26" as="geometry" />
        </mxCell>
        <mxCell id="5fYRm7a2BufOGM3k-XQA-42" value="+ field: type" style="text;strokeColor=none;fillColor=none;align=left;verticalAlign=top;spacingLeft=4;spacingRight=4;overflow=hidden;rotatable=0;points=[[0,0.5],[1,0.5]];portConstraint=eastwest;" vertex="1" parent="5fYRm7a2BufOGM3k-XQA-31">
          <mxGeometry y="130" width="160" height="26" as="geometry" />
        </mxCell>
        <mxCell id="5fYRm7a2BufOGM3k-XQA-40" value="+ field: type" style="text;strokeColor=none;fillColor=none;align=left;verticalAlign=top;spacingLeft=4;spacingRight=4;overflow=hidden;rotatable=0;points=[[0,0.5],[1,0.5]];portConstraint=eastwest;" vertex="1" parent="5fYRm7a2BufOGM3k-XQA-31">
          <mxGeometry y="156" width="160" height="26" as="geometry" />
        </mxCell>
        <mxCell id="5fYRm7a2BufOGM3k-XQA-39" value="+ field: type" style="text;strokeColor=none;fillColor=none;align=left;verticalAlign=top;spacingLeft=4;spacingRight=4;overflow=hidden;rotatable=0;points=[[0,0.5],[1,0.5]];portConstraint=eastwest;" vertex="1" parent="5fYRm7a2BufOGM3k-XQA-31">
          <mxGeometry y="182" width="160" height="26" as="geometry" />
        </mxCell>
        <mxCell id="5fYRm7a2BufOGM3k-XQA-38" value="+ field: type" style="text;strokeColor=none;fillColor=none;align=left;verticalAlign=top;spacingLeft=4;spacingRight=4;overflow=hidden;rotatable=0;points=[[0,0.5],[1,0.5]];portConstraint=eastwest;" vertex="1" parent="5fYRm7a2BufOGM3k-XQA-31">
          <mxGeometry y="208" width="160" height="24" as="geometry" />
        </mxCell>
        <mxCell id="5fYRm7a2BufOGM3k-XQA-33" value="" style="line;strokeWidth=1;fillColor=none;align=left;verticalAlign=middle;spacingTop=-1;spacingLeft=3;spacingRight=3;rotatable=0;labelPosition=right;points=[];portConstraint=eastwest;" vertex="1" parent="5fYRm7a2BufOGM3k-XQA-31">
          <mxGeometry y="232" width="160" height="8" as="geometry" />
        </mxCell>
        <mxCell id="5fYRm7a2BufOGM3k-XQA-34" value="+ method(type): type" style="text;strokeColor=none;fillColor=none;align=left;verticalAlign=top;spacingLeft=4;spacingRight=4;overflow=hidden;rotatable=0;points=[[0,0.5],[1,0.5]];portConstraint=eastwest;" vertex="1" parent="5fYRm7a2BufOGM3k-XQA-31">
          <mxGeometry y="240" width="160" height="26" as="geometry" />
        </mxCell>
        <mxCell id="5fYRm7a2BufOGM3k-XQA-87" value="站点" style="swimlane;fontStyle=1;align=center;verticalAlign=top;childLayout=stackLayout;horizontal=1;startSize=26;horizontalStack=0;resizeParent=1;resizeParentMax=0;resizeLast=0;collapsible=1;marginBottom=0;" vertex="1" parent="WIyWlLk6GJQsqaUBKTNV-1">
          <mxGeometry x="80" y="720" width="160" height="266" as="geometry" />
        </mxCell>
        <mxCell id="5fYRm7a2BufOGM3k-XQA-88" value="站点id" style="text;strokeColor=default;fillColor=none;align=left;verticalAlign=top;spacingLeft=4;spacingRight=4;overflow=hidden;rotatable=0;points=[[0,0.5],[1,0.5]];portConstraint=eastwest;" vertex="1" parent="5fYRm7a2BufOGM3k-XQA-87">
          <mxGeometry y="26" width="160" height="26" as="geometry" />
        </mxCell>
        <mxCell id="5fYRm7a2BufOGM3k-XQA-89" value="+ field: type" style="text;strokeColor=none;fillColor=none;align=left;verticalAlign=top;spacingLeft=4;spacingRight=4;overflow=hidden;rotatable=0;points=[[0,0.5],[1,0.5]];portConstraint=eastwest;" vertex="1" parent="5fYRm7a2BufOGM3k-XQA-87">
          <mxGeometry y="52" width="160" height="26" as="geometry" />
        </mxCell>
        <mxCell id="5fYRm7a2BufOGM3k-XQA-90" value="+ field: type" style="text;strokeColor=none;fillColor=none;align=left;verticalAlign=top;spacingLeft=4;spacingRight=4;overflow=hidden;rotatable=0;points=[[0,0.5],[1,0.5]];portConstraint=eastwest;" vertex="1" parent="5fYRm7a2BufOGM3k-XQA-87">
          <mxGeometry y="78" width="160" height="26" as="geometry" />
        </mxCell>
        <mxCell id="5fYRm7a2BufOGM3k-XQA-91" value="+ field: type" style="text;strokeColor=none;fillColor=none;align=left;verticalAlign=top;spacingLeft=4;spacingRight=4;overflow=hidden;rotatable=0;points=[[0,0.5],[1,0.5]];portConstraint=eastwest;" vertex="1" parent="5fYRm7a2BufOGM3k-XQA-87">
          <mxGeometry y="104" width="160" height="26" as="geometry" />
        </mxCell>
        <mxCell id="5fYRm7a2BufOGM3k-XQA-92" value="+ field: type" style="text;strokeColor=none;fillColor=none;align=left;verticalAlign=top;spacingLeft=4;spacingRight=4;overflow=hidden;rotatable=0;points=[[0,0.5],[1,0.5]];portConstraint=eastwest;" vertex="1" parent="5fYRm7a2BufOGM3k-XQA-87">
          <mxGeometry y="130" width="160" height="26" as="geometry" />
        </mxCell>
        <mxCell id="5fYRm7a2BufOGM3k-XQA-93" value="+ field: type" style="text;strokeColor=none;fillColor=none;align=left;verticalAlign=top;spacingLeft=4;spacingRight=4;overflow=hidden;rotatable=0;points=[[0,0.5],[1,0.5]];portConstraint=eastwest;" vertex="1" parent="5fYRm7a2BufOGM3k-XQA-87">
          <mxGeometry y="156" width="160" height="26" as="geometry" />
        </mxCell>
        <mxCell id="5fYRm7a2BufOGM3k-XQA-94" value="+ field: type" style="text;strokeColor=none;fillColor=none;align=left;verticalAlign=top;spacingLeft=4;spacingRight=4;overflow=hidden;rotatable=0;points=[[0,0.5],[1,0.5]];portConstraint=eastwest;" vertex="1" parent="5fYRm7a2BufOGM3k-XQA-87">
          <mxGeometry y="182" width="160" height="26" as="geometry" />
        </mxCell>
        <mxCell id="5fYRm7a2BufOGM3k-XQA-95" value="+ field: type" style="text;strokeColor=none;fillColor=none;align=left;verticalAlign=top;spacingLeft=4;spacingRight=4;overflow=hidden;rotatable=0;points=[[0,0.5],[1,0.5]];portConstraint=eastwest;" vertex="1" parent="5fYRm7a2BufOGM3k-XQA-87">
          <mxGeometry y="208" width="160" height="24" as="geometry" />
        </mxCell>
        <mxCell id="5fYRm7a2BufOGM3k-XQA-96" value="" style="line;strokeWidth=1;fillColor=none;align=left;verticalAlign=middle;spacingTop=-1;spacingLeft=3;spacingRight=3;rotatable=0;labelPosition=right;points=[];portConstraint=eastwest;" vertex="1" parent="5fYRm7a2BufOGM3k-XQA-87">
          <mxGeometry y="232" width="160" height="8" as="geometry" />
        </mxCell>
        <mxCell id="5fYRm7a2BufOGM3k-XQA-97" value="+ method(type): type" style="text;strokeColor=none;fillColor=none;align=left;verticalAlign=top;spacingLeft=4;spacingRight=4;overflow=hidden;rotatable=0;points=[[0,0.5],[1,0.5]];portConstraint=eastwest;" vertex="1" parent="5fYRm7a2BufOGM3k-XQA-87">
          <mxGeometry y="240" width="160" height="26" as="geometry" />
        </mxCell>
        <mxCell id="5fYRm7a2BufOGM3k-XQA-98" value="巡检事件" style="swimlane;fontStyle=1;align=center;verticalAlign=top;childLayout=stackLayout;horizontal=1;startSize=26;horizontalStack=0;resizeParent=1;resizeParentMax=0;resizeLast=0;collapsible=1;marginBottom=0;" vertex="1" parent="WIyWlLk6GJQsqaUBKTNV-1">
          <mxGeometry x="-160" y="402" width="160" height="266" as="geometry" />
        </mxCell>
        <mxCell id="5fYRm7a2BufOGM3k-XQA-99" value="巡检事件id" style="text;strokeColor=default;fillColor=none;align=left;verticalAlign=top;spacingLeft=4;spacingRight=4;overflow=hidden;rotatable=0;points=[[0,0.5],[1,0.5]];portConstraint=eastwest;" vertex="1" parent="5fYRm7a2BufOGM3k-XQA-98">
          <mxGeometry y="26" width="160" height="26" as="geometry" />
        </mxCell>
        <mxCell id="5fYRm7a2BufOGM3k-XQA-100" value="+ field: type" style="text;strokeColor=none;fillColor=none;align=left;verticalAlign=top;spacingLeft=4;spacingRight=4;overflow=hidden;rotatable=0;points=[[0,0.5],[1,0.5]];portConstraint=eastwest;" vertex="1" parent="5fYRm7a2BufOGM3k-XQA-98">
          <mxGeometry y="52" width="160" height="26" as="geometry" />
        </mxCell>
        <mxCell id="5fYRm7a2BufOGM3k-XQA-101" value="+ field: type" style="text;strokeColor=none;fillColor=none;align=left;verticalAlign=top;spacingLeft=4;spacingRight=4;overflow=hidden;rotatable=0;points=[[0,0.5],[1,0.5]];portConstraint=eastwest;" vertex="1" parent="5fYRm7a2BufOGM3k-XQA-98">
          <mxGeometry y="78" width="160" height="26" as="geometry" />
        </mxCell>
        <mxCell id="5fYRm7a2BufOGM3k-XQA-102" value="+ field: type" style="text;strokeColor=none;fillColor=none;align=left;verticalAlign=top;spacingLeft=4;spacingRight=4;overflow=hidden;rotatable=0;points=[[0,0.5],[1,0.5]];portConstraint=eastwest;" vertex="1" parent="5fYRm7a2BufOGM3k-XQA-98">
          <mxGeometry y="104" width="160" height="26" as="geometry" />
        </mxCell>
        <mxCell id="5fYRm7a2BufOGM3k-XQA-103" value="+ field: type" style="text;strokeColor=none;fillColor=none;align=left;verticalAlign=top;spacingLeft=4;spacingRight=4;overflow=hidden;rotatable=0;points=[[0,0.5],[1,0.5]];portConstraint=eastwest;" vertex="1" parent="5fYRm7a2BufOGM3k-XQA-98">
          <mxGeometry y="130" width="160" height="26" as="geometry" />
        </mxCell>
        <mxCell id="5fYRm7a2BufOGM3k-XQA-104" value="+ field: type" style="text;strokeColor=none;fillColor=none;align=left;verticalAlign=top;spacingLeft=4;spacingRight=4;overflow=hidden;rotatable=0;points=[[0,0.5],[1,0.5]];portConstraint=eastwest;" vertex="1" parent="5fYRm7a2BufOGM3k-XQA-98">
          <mxGeometry y="156" width="160" height="26" as="geometry" />
        </mxCell>
        <mxCell id="5fYRm7a2BufOGM3k-XQA-105" value="+ field: type" style="text;strokeColor=none;fillColor=none;align=left;verticalAlign=top;spacingLeft=4;spacingRight=4;overflow=hidden;rotatable=0;points=[[0,0.5],[1,0.5]];portConstraint=eastwest;" vertex="1" parent="5fYRm7a2BufOGM3k-XQA-98">
          <mxGeometry y="182" width="160" height="26" as="geometry" />
        </mxCell>
        <mxCell id="5fYRm7a2BufOGM3k-XQA-106" value="+ field: type" style="text;strokeColor=none;fillColor=none;align=left;verticalAlign=top;spacingLeft=4;spacingRight=4;overflow=hidden;rotatable=0;points=[[0,0.5],[1,0.5]];portConstraint=eastwest;" vertex="1" parent="5fYRm7a2BufOGM3k-XQA-98">
          <mxGeometry y="208" width="160" height="24" as="geometry" />
        </mxCell>
        <mxCell id="5fYRm7a2BufOGM3k-XQA-107" value="" style="line;strokeWidth=1;fillColor=none;align=left;verticalAlign=middle;spacingTop=-1;spacingLeft=3;spacingRight=3;rotatable=0;labelPosition=right;points=[];portConstraint=eastwest;" vertex="1" parent="5fYRm7a2BufOGM3k-XQA-98">
          <mxGeometry y="232" width="160" height="8" as="geometry" />
        </mxCell>
        <mxCell id="5fYRm7a2BufOGM3k-XQA-108" value="+ method(type): type" style="text;strokeColor=none;fillColor=none;align=left;verticalAlign=top;spacingLeft=4;spacingRight=4;overflow=hidden;rotatable=0;points=[[0,0.5],[1,0.5]];portConstraint=eastwest;" vertex="1" parent="5fYRm7a2BufOGM3k-XQA-98">
          <mxGeometry y="240" width="160" height="26" as="geometry" />
        </mxCell>
        <mxCell id="5fYRm7a2BufOGM3k-XQA-115" value="任务事件" style="swimlane;fontStyle=1;align=center;verticalAlign=top;childLayout=stackLayout;horizontal=1;startSize=26;horizontalStack=0;resizeParent=1;resizeParentMax=0;resizeLast=0;collapsible=1;marginBottom=0;" vertex="1" parent="WIyWlLk6GJQsqaUBKTNV-1">
          <mxGeometry x="-360" y="402" width="160" height="262" as="geometry" />
        </mxCell>
        <mxCell id="5fYRm7a2BufOGM3k-XQA-116" value="任务事件id" style="text;strokeColor=none;fillColor=none;align=left;verticalAlign=top;spacingLeft=4;spacingRight=4;overflow=hidden;rotatable=0;points=[[0,0.5],[1,0.5]];portConstraint=eastwest;" vertex="1" parent="5fYRm7a2BufOGM3k-XQA-115">
          <mxGeometry y="26" width="160" height="22" as="geometry" />
        </mxCell>
        <mxCell id="5fYRm7a2BufOGM3k-XQA-117" value="+ field: type" style="text;strokeColor=none;fillColor=none;align=left;verticalAlign=top;spacingLeft=4;spacingRight=4;overflow=hidden;rotatable=0;points=[[0,0.5],[1,0.5]];portConstraint=eastwest;" vertex="1" parent="5fYRm7a2BufOGM3k-XQA-115">
          <mxGeometry y="48" width="160" height="26" as="geometry" />
        </mxCell>
        <mxCell id="5fYRm7a2BufOGM3k-XQA-118" value="+ field: type" style="text;strokeColor=none;fillColor=none;align=left;verticalAlign=top;spacingLeft=4;spacingRight=4;overflow=hidden;rotatable=0;points=[[0,0.5],[1,0.5]];portConstraint=eastwest;" vertex="1" parent="5fYRm7a2BufOGM3k-XQA-115">
          <mxGeometry y="74" width="160" height="26" as="geometry" />
        </mxCell>
        <mxCell id="5fYRm7a2BufOGM3k-XQA-119" value="+ field: type" style="text;strokeColor=none;fillColor=none;align=left;verticalAlign=top;spacingLeft=4;spacingRight=4;overflow=hidden;rotatable=0;points=[[0,0.5],[1,0.5]];portConstraint=eastwest;" vertex="1" parent="5fYRm7a2BufOGM3k-XQA-115">
          <mxGeometry y="100" width="160" height="26" as="geometry" />
        </mxCell>
        <mxCell id="5fYRm7a2BufOGM3k-XQA-120" value="+ field: type" style="text;strokeColor=none;fillColor=none;align=left;verticalAlign=top;spacingLeft=4;spacingRight=4;overflow=hidden;rotatable=0;points=[[0,0.5],[1,0.5]];portConstraint=eastwest;" vertex="1" parent="5fYRm7a2BufOGM3k-XQA-115">
          <mxGeometry y="126" width="160" height="26" as="geometry" />
        </mxCell>
        <mxCell id="5fYRm7a2BufOGM3k-XQA-121" value="+ field: type" style="text;strokeColor=none;fillColor=none;align=left;verticalAlign=top;spacingLeft=4;spacingRight=4;overflow=hidden;rotatable=0;points=[[0,0.5],[1,0.5]];portConstraint=eastwest;" vertex="1" parent="5fYRm7a2BufOGM3k-XQA-115">
          <mxGeometry y="152" width="160" height="26" as="geometry" />
        </mxCell>
        <mxCell id="5fYRm7a2BufOGM3k-XQA-122" value="+ field: type" style="text;strokeColor=none;fillColor=none;align=left;verticalAlign=top;spacingLeft=4;spacingRight=4;overflow=hidden;rotatable=0;points=[[0,0.5],[1,0.5]];portConstraint=eastwest;" vertex="1" parent="5fYRm7a2BufOGM3k-XQA-115">
          <mxGeometry y="178" width="160" height="26" as="geometry" />
        </mxCell>
        <mxCell id="5fYRm7a2BufOGM3k-XQA-123" value="+ field: type" style="text;strokeColor=none;fillColor=none;align=left;verticalAlign=top;spacingLeft=4;spacingRight=4;overflow=hidden;rotatable=0;points=[[0,0.5],[1,0.5]];portConstraint=eastwest;" vertex="1" parent="5fYRm7a2BufOGM3k-XQA-115">
          <mxGeometry y="204" width="160" height="24" as="geometry" />
        </mxCell>
        <mxCell id="5fYRm7a2BufOGM3k-XQA-124" value="" style="line;strokeWidth=1;fillColor=none;align=left;verticalAlign=middle;spacingTop=-1;spacingLeft=3;spacingRight=3;rotatable=0;labelPosition=right;points=[];portConstraint=eastwest;" vertex="1" parent="5fYRm7a2BufOGM3k-XQA-115">
          <mxGeometry y="228" width="160" height="8" as="geometry" />
        </mxCell>
        <mxCell id="5fYRm7a2BufOGM3k-XQA-125" value="+ method(type): type" style="text;strokeColor=none;fillColor=none;align=left;verticalAlign=top;spacingLeft=4;spacingRight=4;overflow=hidden;rotatable=0;points=[[0,0.5],[1,0.5]];portConstraint=eastwest;" vertex="1" parent="5fYRm7a2BufOGM3k-XQA-115">
          <mxGeometry y="236" width="160" height="26" as="geometry" />
        </mxCell>
        <mxCell id="5fYRm7a2BufOGM3k-XQA-134" value="" style="endArrow=none;html=1;rounded=0;exitX=1;exitY=0.5;exitDx=0;exitDy=0;strokeColor=#FF6666;" edge="1" parent="WIyWlLk6GJQsqaUBKTNV-1" source="5fYRm7a2BufOGM3k-XQA-88" target="5fYRm7a2BufOGM3k-XQA-99">
          <mxGeometry relative="1" as="geometry">
            <mxPoint x="-30" y="780" as="sourcePoint" />
            <mxPoint x="80" y="780" as="targetPoint" />
          </mxGeometry>
        </mxCell>
        <mxCell id="5fYRm7a2BufOGM3k-XQA-135" value="1" style="resizable=0;html=1;align=left;verticalAlign=bottom;fontColor=#FF6666;" connectable="0" vertex="1" parent="5fYRm7a2BufOGM3k-XQA-134">
          <mxGeometry x="-1" relative="1" as="geometry" />
        </mxCell>
        <mxCell id="5fYRm7a2BufOGM3k-XQA-136" value="N" style="resizable=0;html=1;align=right;verticalAlign=bottom;fontColor=#FF6666;" connectable="0" vertex="1" parent="5fYRm7a2BufOGM3k-XQA-134">
          <mxGeometry x="1" relative="1" as="geometry" />
        </mxCell>
        <mxCell id="5fYRm7a2BufOGM3k-XQA-137" value="" style="endArrow=none;html=1;rounded=0;exitX=0;exitY=0.5;exitDx=0;exitDy=0;" edge="1" parent="WIyWlLk6GJQsqaUBKTNV-1" source="5fYRm7a2BufOGM3k-XQA-88" target="5fYRm7a2BufOGM3k-XQA-116">
          <mxGeometry relative="1" as="geometry">
            <mxPoint x="-40" y="780" as="sourcePoint" />
            <mxPoint x="120" y="780" as="targetPoint" />
          </mxGeometry>
        </mxCell>
        <mxCell id="5fYRm7a2BufOGM3k-XQA-138" value="1" style="resizable=0;html=1;align=left;verticalAlign=bottom;" connectable="0" vertex="1" parent="5fYRm7a2BufOGM3k-XQA-137">
          <mxGeometry x="-1" relative="1" as="geometry" />
        </mxCell>
        <mxCell id="5fYRm7a2BufOGM3k-XQA-139" value="N" style="resizable=0;html=1;align=right;verticalAlign=bottom;" connectable="0" vertex="1" parent="5fYRm7a2BufOGM3k-XQA-137">
          <mxGeometry x="1" relative="1" as="geometry" />
        </mxCell>
        <mxCell id="5fYRm7a2BufOGM3k-XQA-140" value="" style="endArrow=none;html=1;rounded=0;" edge="1" parent="WIyWlLk6GJQsqaUBKTNV-1" source="5fYRm7a2BufOGM3k-XQA-99" target="5fYRm7a2BufOGM3k-XQA-116">
          <mxGeometry relative="1" as="geometry">
            <mxPoint x="230" y="750" as="sourcePoint" />
            <mxPoint x="390" y="750" as="targetPoint" />
          </mxGeometry>
        </mxCell>
        <mxCell id="5fYRm7a2BufOGM3k-XQA-141" value="1" style="resizable=0;html=1;align=left;verticalAlign=bottom;" connectable="0" vertex="1" parent="5fYRm7a2BufOGM3k-XQA-140">
          <mxGeometry x="-1" relative="1" as="geometry" />
        </mxCell>
        <mxCell id="5fYRm7a2BufOGM3k-XQA-142" value="1" style="resizable=0;html=1;align=right;verticalAlign=bottom;" connectable="0" vertex="1" parent="5fYRm7a2BufOGM3k-XQA-140">
          <mxGeometry x="1" relative="1" as="geometry" />
        </mxCell>
        <mxCell id="5fYRm7a2BufOGM3k-XQA-188" value="设备环境事件" style="swimlane;fontStyle=1;align=center;verticalAlign=top;childLayout=stackLayout;horizontal=1;startSize=26;horizontalStack=0;resizeParent=1;resizeParentMax=0;resizeLast=0;collapsible=1;marginBottom=0;" vertex="1" parent="WIyWlLk6GJQsqaUBKTNV-1">
          <mxGeometry x="-560" y="400" width="160" height="266" as="geometry" />
        </mxCell>
        <mxCell id="5fYRm7a2BufOGM3k-XQA-189" value="设备事件id" style="text;strokeColor=default;fillColor=none;align=left;verticalAlign=top;spacingLeft=4;spacingRight=4;overflow=hidden;rotatable=0;points=[[0,0.5],[1,0.5]];portConstraint=eastwest;" vertex="1" parent="5fYRm7a2BufOGM3k-XQA-188">
          <mxGeometry y="26" width="160" height="26" as="geometry" />
        </mxCell>
        <mxCell id="5fYRm7a2BufOGM3k-XQA-190" value="+ field: type" style="text;strokeColor=none;fillColor=none;align=left;verticalAlign=top;spacingLeft=4;spacingRight=4;overflow=hidden;rotatable=0;points=[[0,0.5],[1,0.5]];portConstraint=eastwest;" vertex="1" parent="5fYRm7a2BufOGM3k-XQA-188">
          <mxGeometry y="52" width="160" height="26" as="geometry" />
        </mxCell>
        <mxCell id="5fYRm7a2BufOGM3k-XQA-191" value="+ field: type" style="text;strokeColor=none;fillColor=none;align=left;verticalAlign=top;spacingLeft=4;spacingRight=4;overflow=hidden;rotatable=0;points=[[0,0.5],[1,0.5]];portConstraint=eastwest;" vertex="1" parent="5fYRm7a2BufOGM3k-XQA-188">
          <mxGeometry y="78" width="160" height="26" as="geometry" />
        </mxCell>
        <mxCell id="5fYRm7a2BufOGM3k-XQA-192" value="+ field: type" style="text;strokeColor=none;fillColor=none;align=left;verticalAlign=top;spacingLeft=4;spacingRight=4;overflow=hidden;rotatable=0;points=[[0,0.5],[1,0.5]];portConstraint=eastwest;" vertex="1" parent="5fYRm7a2BufOGM3k-XQA-188">
          <mxGeometry y="104" width="160" height="26" as="geometry" />
        </mxCell>
        <mxCell id="5fYRm7a2BufOGM3k-XQA-193" value="+ field: type" style="text;strokeColor=none;fillColor=none;align=left;verticalAlign=top;spacingLeft=4;spacingRight=4;overflow=hidden;rotatable=0;points=[[0,0.5],[1,0.5]];portConstraint=eastwest;" vertex="1" parent="5fYRm7a2BufOGM3k-XQA-188">
          <mxGeometry y="130" width="160" height="26" as="geometry" />
        </mxCell>
        <mxCell id="5fYRm7a2BufOGM3k-XQA-194" value="+ field: type" style="text;strokeColor=none;fillColor=none;align=left;verticalAlign=top;spacingLeft=4;spacingRight=4;overflow=hidden;rotatable=0;points=[[0,0.5],[1,0.5]];portConstraint=eastwest;" vertex="1" parent="5fYRm7a2BufOGM3k-XQA-188">
          <mxGeometry y="156" width="160" height="26" as="geometry" />
        </mxCell>
        <mxCell id="5fYRm7a2BufOGM3k-XQA-195" value="+ field: type" style="text;strokeColor=none;fillColor=none;align=left;verticalAlign=top;spacingLeft=4;spacingRight=4;overflow=hidden;rotatable=0;points=[[0,0.5],[1,0.5]];portConstraint=eastwest;" vertex="1" parent="5fYRm7a2BufOGM3k-XQA-188">
          <mxGeometry y="182" width="160" height="26" as="geometry" />
        </mxCell>
        <mxCell id="5fYRm7a2BufOGM3k-XQA-196" value="+ field: type" style="text;strokeColor=none;fillColor=none;align=left;verticalAlign=top;spacingLeft=4;spacingRight=4;overflow=hidden;rotatable=0;points=[[0,0.5],[1,0.5]];portConstraint=eastwest;" vertex="1" parent="5fYRm7a2BufOGM3k-XQA-188">
          <mxGeometry y="208" width="160" height="24" as="geometry" />
        </mxCell>
        <mxCell id="5fYRm7a2BufOGM3k-XQA-197" value="" style="line;strokeWidth=1;fillColor=none;align=left;verticalAlign=middle;spacingTop=-1;spacingLeft=3;spacingRight=3;rotatable=0;labelPosition=right;points=[];portConstraint=eastwest;" vertex="1" parent="5fYRm7a2BufOGM3k-XQA-188">
          <mxGeometry y="232" width="160" height="8" as="geometry" />
        </mxCell>
        <mxCell id="5fYRm7a2BufOGM3k-XQA-198" value="+ method(type): type" style="text;strokeColor=none;fillColor=none;align=left;verticalAlign=top;spacingLeft=4;spacingRight=4;overflow=hidden;rotatable=0;points=[[0,0.5],[1,0.5]];portConstraint=eastwest;" vertex="1" parent="5fYRm7a2BufOGM3k-XQA-188">
          <mxGeometry y="240" width="160" height="26" as="geometry" />
        </mxCell>
        <mxCell id="5fYRm7a2BufOGM3k-XQA-199" value="" style="endArrow=none;html=1;rounded=0;" edge="1" parent="WIyWlLk6GJQsqaUBKTNV-1" source="5fYRm7a2BufOGM3k-XQA-32" target="5fYRm7a2BufOGM3k-XQA-189">
          <mxGeometry relative="1" as="geometry">
            <mxPoint x="-610" y="450" as="sourcePoint" />
            <mxPoint x="-450" y="450" as="targetPoint" />
          </mxGeometry>
        </mxCell>
        <mxCell id="5fYRm7a2BufOGM3k-XQA-200" value="1" style="resizable=0;html=1;align=left;verticalAlign=bottom;strokeColor=default;fillColor=none;" connectable="0" vertex="1" parent="5fYRm7a2BufOGM3k-XQA-199">
          <mxGeometry x="-1" relative="1" as="geometry" />
        </mxCell>
        <mxCell id="5fYRm7a2BufOGM3k-XQA-201" value="N" style="resizable=0;html=1;align=right;verticalAlign=bottom;strokeColor=default;fillColor=none;" connectable="0" vertex="1" parent="5fYRm7a2BufOGM3k-XQA-199">
          <mxGeometry x="1" relative="1" as="geometry" />
        </mxCell>
        <mxCell id="5fYRm7a2BufOGM3k-XQA-202" value="设备自身事件（是否正常运行）" style="swimlane;fontStyle=1;align=center;verticalAlign=top;childLayout=stackLayout;horizontal=1;startSize=26;horizontalStack=0;resizeParent=1;resizeParentMax=0;resizeLast=0;collapsible=1;marginBottom=0;" vertex="1" parent="WIyWlLk6GJQsqaUBKTNV-1">
          <mxGeometry x="-1000" y="400" width="200" height="266" as="geometry" />
        </mxCell>
        <mxCell id="5fYRm7a2BufOGM3k-XQA-203" value="设备事件id" style="text;strokeColor=default;fillColor=none;align=left;verticalAlign=top;spacingLeft=4;spacingRight=4;overflow=hidden;rotatable=0;points=[[0,0.5],[1,0.5]];portConstraint=eastwest;" vertex="1" parent="5fYRm7a2BufOGM3k-XQA-202">
          <mxGeometry y="26" width="200" height="26" as="geometry" />
        </mxCell>
        <mxCell id="5fYRm7a2BufOGM3k-XQA-204" value="+ field: type" style="text;strokeColor=none;fillColor=none;align=left;verticalAlign=top;spacingLeft=4;spacingRight=4;overflow=hidden;rotatable=0;points=[[0,0.5],[1,0.5]];portConstraint=eastwest;" vertex="1" parent="5fYRm7a2BufOGM3k-XQA-202">
          <mxGeometry y="52" width="200" height="26" as="geometry" />
        </mxCell>
        <mxCell id="5fYRm7a2BufOGM3k-XQA-205" value="+ field: type" style="text;strokeColor=none;fillColor=none;align=left;verticalAlign=top;spacingLeft=4;spacingRight=4;overflow=hidden;rotatable=0;points=[[0,0.5],[1,0.5]];portConstraint=eastwest;" vertex="1" parent="5fYRm7a2BufOGM3k-XQA-202">
          <mxGeometry y="78" width="200" height="26" as="geometry" />
        </mxCell>
        <mxCell id="5fYRm7a2BufOGM3k-XQA-206" value="+ field: type" style="text;strokeColor=none;fillColor=none;align=left;verticalAlign=top;spacingLeft=4;spacingRight=4;overflow=hidden;rotatable=0;points=[[0,0.5],[1,0.5]];portConstraint=eastwest;" vertex="1" parent="5fYRm7a2BufOGM3k-XQA-202">
          <mxGeometry y="104" width="200" height="26" as="geometry" />
        </mxCell>
        <mxCell id="5fYRm7a2BufOGM3k-XQA-207" value="+ field: type" style="text;strokeColor=none;fillColor=none;align=left;verticalAlign=top;spacingLeft=4;spacingRight=4;overflow=hidden;rotatable=0;points=[[0,0.5],[1,0.5]];portConstraint=eastwest;" vertex="1" parent="5fYRm7a2BufOGM3k-XQA-202">
          <mxGeometry y="130" width="200" height="26" as="geometry" />
        </mxCell>
        <mxCell id="5fYRm7a2BufOGM3k-XQA-208" value="+ field: type" style="text;strokeColor=none;fillColor=none;align=left;verticalAlign=top;spacingLeft=4;spacingRight=4;overflow=hidden;rotatable=0;points=[[0,0.5],[1,0.5]];portConstraint=eastwest;" vertex="1" parent="5fYRm7a2BufOGM3k-XQA-202">
          <mxGeometry y="156" width="200" height="26" as="geometry" />
        </mxCell>
        <mxCell id="5fYRm7a2BufOGM3k-XQA-209" value="+ field: type" style="text;strokeColor=none;fillColor=none;align=left;verticalAlign=top;spacingLeft=4;spacingRight=4;overflow=hidden;rotatable=0;points=[[0,0.5],[1,0.5]];portConstraint=eastwest;" vertex="1" parent="5fYRm7a2BufOGM3k-XQA-202">
          <mxGeometry y="182" width="200" height="26" as="geometry" />
        </mxCell>
        <mxCell id="5fYRm7a2BufOGM3k-XQA-210" value="+ field: type" style="text;strokeColor=none;fillColor=none;align=left;verticalAlign=top;spacingLeft=4;spacingRight=4;overflow=hidden;rotatable=0;points=[[0,0.5],[1,0.5]];portConstraint=eastwest;" vertex="1" parent="5fYRm7a2BufOGM3k-XQA-202">
          <mxGeometry y="208" width="200" height="24" as="geometry" />
        </mxCell>
        <mxCell id="5fYRm7a2BufOGM3k-XQA-211" value="" style="line;strokeWidth=1;fillColor=none;align=left;verticalAlign=middle;spacingTop=-1;spacingLeft=3;spacingRight=3;rotatable=0;labelPosition=right;points=[];portConstraint=eastwest;" vertex="1" parent="5fYRm7a2BufOGM3k-XQA-202">
          <mxGeometry y="232" width="200" height="8" as="geometry" />
        </mxCell>
        <mxCell id="5fYRm7a2BufOGM3k-XQA-212" value="+ method(type): type" style="text;strokeColor=none;fillColor=none;align=left;verticalAlign=top;spacingLeft=4;spacingRight=4;overflow=hidden;rotatable=0;points=[[0,0.5],[1,0.5]];portConstraint=eastwest;" vertex="1" parent="5fYRm7a2BufOGM3k-XQA-202">
          <mxGeometry y="240" width="200" height="26" as="geometry" />
        </mxCell>
        <mxCell id="5fYRm7a2BufOGM3k-XQA-213" value="" style="endArrow=none;html=1;rounded=0;entryX=1;entryY=0.5;entryDx=0;entryDy=0;strokeColor=#FF3333;" edge="1" parent="WIyWlLk6GJQsqaUBKTNV-1" source="5fYRm7a2BufOGM3k-XQA-32" target="5fYRm7a2BufOGM3k-XQA-203">
          <mxGeometry relative="1" as="geometry">
            <mxPoint x="-590" y="450" as="sourcePoint" />
            <mxPoint x="-430" y="450" as="targetPoint" />
          </mxGeometry>
        </mxCell>
        <mxCell id="5fYRm7a2BufOGM3k-XQA-214" value="1" style="resizable=0;html=1;align=left;verticalAlign=bottom;strokeColor=default;fillColor=none;" connectable="0" vertex="1" parent="5fYRm7a2BufOGM3k-XQA-213">
          <mxGeometry x="-1" relative="1" as="geometry" />
        </mxCell>
        <mxCell id="5fYRm7a2BufOGM3k-XQA-215" value="N" style="resizable=0;html=1;align=right;verticalAlign=bottom;strokeColor=default;fillColor=none;" connectable="0" vertex="1" parent="5fYRm7a2BufOGM3k-XQA-213">
          <mxGeometry x="1" relative="1" as="geometry" />
        </mxCell>
        <mxCell id="5fYRm7a2BufOGM3k-XQA-216" value="" style="endArrow=none;html=1;rounded=0;exitX=1;exitY=0.5;exitDx=0;exitDy=0;" edge="1" parent="WIyWlLk6GJQsqaUBKTNV-1" source="5fYRm7a2BufOGM3k-XQA-189" target="5fYRm7a2BufOGM3k-XQA-116">
          <mxGeometry relative="1" as="geometry">
            <mxPoint x="-320" y="424.47" as="sourcePoint" />
            <mxPoint x="-180" y="424.47" as="targetPoint" />
          </mxGeometry>
        </mxCell>
        <mxCell id="5fYRm7a2BufOGM3k-XQA-217" value="1" style="resizable=0;html=1;align=left;verticalAlign=bottom;strokeColor=default;fillColor=none;" connectable="0" vertex="1" parent="5fYRm7a2BufOGM3k-XQA-216">
          <mxGeometry x="-1" relative="1" as="geometry" />
        </mxCell>
        <mxCell id="5fYRm7a2BufOGM3k-XQA-218" value="1" style="resizable=0;html=1;align=right;verticalAlign=bottom;strokeColor=default;fillColor=none;" connectable="0" vertex="1" parent="5fYRm7a2BufOGM3k-XQA-216">
          <mxGeometry x="1" relative="1" as="geometry" />
        </mxCell>
        <mxCell id="5fYRm7a2BufOGM3k-XQA-335" value="行政区划" style="swimlane;fontStyle=1;align=center;verticalAlign=top;childLayout=stackLayout;horizontal=1;startSize=26;horizontalStack=0;resizeParent=1;resizeParentMax=0;resizeLast=0;collapsible=1;marginBottom=0;" vertex="1" parent="WIyWlLk6GJQsqaUBKTNV-1">
          <mxGeometry x="80" y="1040" width="160" height="266" as="geometry" />
        </mxCell>
        <mxCell id="5fYRm7a2BufOGM3k-XQA-336" value="行政区划名" style="text;strokeColor=default;fillColor=none;align=left;verticalAlign=top;spacingLeft=4;spacingRight=4;overflow=hidden;rotatable=0;points=[[0,0.5],[1,0.5]];portConstraint=eastwest;" vertex="1" parent="5fYRm7a2BufOGM3k-XQA-335">
          <mxGeometry y="26" width="160" height="26" as="geometry" />
        </mxCell>
        <mxCell id="5fYRm7a2BufOGM3k-XQA-337" value="+ field: type" style="text;strokeColor=none;fillColor=none;align=left;verticalAlign=top;spacingLeft=4;spacingRight=4;overflow=hidden;rotatable=0;points=[[0,0.5],[1,0.5]];portConstraint=eastwest;" vertex="1" parent="5fYRm7a2BufOGM3k-XQA-335">
          <mxGeometry y="52" width="160" height="26" as="geometry" />
        </mxCell>
        <mxCell id="5fYRm7a2BufOGM3k-XQA-338" value="+ field: type" style="text;strokeColor=none;fillColor=none;align=left;verticalAlign=top;spacingLeft=4;spacingRight=4;overflow=hidden;rotatable=0;points=[[0,0.5],[1,0.5]];portConstraint=eastwest;" vertex="1" parent="5fYRm7a2BufOGM3k-XQA-335">
          <mxGeometry y="78" width="160" height="26" as="geometry" />
        </mxCell>
        <mxCell id="5fYRm7a2BufOGM3k-XQA-339" value="+ field: type" style="text;strokeColor=none;fillColor=none;align=left;verticalAlign=top;spacingLeft=4;spacingRight=4;overflow=hidden;rotatable=0;points=[[0,0.5],[1,0.5]];portConstraint=eastwest;" vertex="1" parent="5fYRm7a2BufOGM3k-XQA-335">
          <mxGeometry y="104" width="160" height="26" as="geometry" />
        </mxCell>
        <mxCell id="5fYRm7a2BufOGM3k-XQA-340" value="+ field: type" style="text;strokeColor=none;fillColor=none;align=left;verticalAlign=top;spacingLeft=4;spacingRight=4;overflow=hidden;rotatable=0;points=[[0,0.5],[1,0.5]];portConstraint=eastwest;" vertex="1" parent="5fYRm7a2BufOGM3k-XQA-335">
          <mxGeometry y="130" width="160" height="26" as="geometry" />
        </mxCell>
        <mxCell id="5fYRm7a2BufOGM3k-XQA-341" value="+ field: type" style="text;strokeColor=none;fillColor=none;align=left;verticalAlign=top;spacingLeft=4;spacingRight=4;overflow=hidden;rotatable=0;points=[[0,0.5],[1,0.5]];portConstraint=eastwest;" vertex="1" parent="5fYRm7a2BufOGM3k-XQA-335">
          <mxGeometry y="156" width="160" height="26" as="geometry" />
        </mxCell>
        <mxCell id="5fYRm7a2BufOGM3k-XQA-342" value="+ field: type" style="text;strokeColor=none;fillColor=none;align=left;verticalAlign=top;spacingLeft=4;spacingRight=4;overflow=hidden;rotatable=0;points=[[0,0.5],[1,0.5]];portConstraint=eastwest;" vertex="1" parent="5fYRm7a2BufOGM3k-XQA-335">
          <mxGeometry y="182" width="160" height="26" as="geometry" />
        </mxCell>
        <mxCell id="5fYRm7a2BufOGM3k-XQA-343" value="+ field: type" style="text;strokeColor=none;fillColor=none;align=left;verticalAlign=top;spacingLeft=4;spacingRight=4;overflow=hidden;rotatable=0;points=[[0,0.5],[1,0.5]];portConstraint=eastwest;" vertex="1" parent="5fYRm7a2BufOGM3k-XQA-335">
          <mxGeometry y="208" width="160" height="24" as="geometry" />
        </mxCell>
        <mxCell id="5fYRm7a2BufOGM3k-XQA-344" value="" style="line;strokeWidth=1;fillColor=none;align=left;verticalAlign=middle;spacingTop=-1;spacingLeft=3;spacingRight=3;rotatable=0;labelPosition=right;points=[];portConstraint=eastwest;" vertex="1" parent="5fYRm7a2BufOGM3k-XQA-335">
          <mxGeometry y="232" width="160" height="8" as="geometry" />
        </mxCell>
        <mxCell id="5fYRm7a2BufOGM3k-XQA-345" value="+ method(type): type" style="text;strokeColor=none;fillColor=none;align=left;verticalAlign=top;spacingLeft=4;spacingRight=4;overflow=hidden;rotatable=0;points=[[0,0.5],[1,0.5]];portConstraint=eastwest;" vertex="1" parent="5fYRm7a2BufOGM3k-XQA-335">
          <mxGeometry y="240" width="160" height="26" as="geometry" />
        </mxCell>
        <mxCell id="5fYRm7a2BufOGM3k-XQA-346" value="单位" style="swimlane;fontStyle=1;align=center;verticalAlign=top;childLayout=stackLayout;horizontal=1;startSize=26;horizontalStack=0;resizeParent=1;resizeParentMax=0;resizeLast=0;collapsible=1;marginBottom=0;" vertex="1" parent="WIyWlLk6GJQsqaUBKTNV-1">
          <mxGeometry x="320" y="1040" width="160" height="240" as="geometry" />
        </mxCell>
        <mxCell id="5fYRm7a2BufOGM3k-XQA-347" value="单位名" style="text;strokeColor=default;fillColor=none;align=left;verticalAlign=top;spacingLeft=4;spacingRight=4;overflow=hidden;rotatable=0;points=[[0,0.5],[1,0.5]];portConstraint=eastwest;" vertex="1" parent="5fYRm7a2BufOGM3k-XQA-346">
          <mxGeometry y="26" width="160" height="26" as="geometry" />
        </mxCell>
        <mxCell id="5fYRm7a2BufOGM3k-XQA-348" value="单位负责人" style="text;strokeColor=none;fillColor=none;align=left;verticalAlign=top;spacingLeft=4;spacingRight=4;overflow=hidden;rotatable=0;points=[[0,0.5],[1,0.5]];portConstraint=eastwest;" vertex="1" parent="5fYRm7a2BufOGM3k-XQA-346">
          <mxGeometry y="52" width="160" height="26" as="geometry" />
        </mxCell>
        <mxCell id="5fYRm7a2BufOGM3k-XQA-349" value="+ field: type" style="text;strokeColor=none;fillColor=none;align=left;verticalAlign=top;spacingLeft=4;spacingRight=4;overflow=hidden;rotatable=0;points=[[0,0.5],[1,0.5]];portConstraint=eastwest;" vertex="1" parent="5fYRm7a2BufOGM3k-XQA-346">
          <mxGeometry y="78" width="160" height="26" as="geometry" />
        </mxCell>
        <mxCell id="5fYRm7a2BufOGM3k-XQA-350" value="+ field: type" style="text;strokeColor=none;fillColor=none;align=left;verticalAlign=top;spacingLeft=4;spacingRight=4;overflow=hidden;rotatable=0;points=[[0,0.5],[1,0.5]];portConstraint=eastwest;" vertex="1" parent="5fYRm7a2BufOGM3k-XQA-346">
          <mxGeometry y="104" width="160" height="26" as="geometry" />
        </mxCell>
        <mxCell id="5fYRm7a2BufOGM3k-XQA-351" value="+ field: type" style="text;strokeColor=none;fillColor=none;align=left;verticalAlign=top;spacingLeft=4;spacingRight=4;overflow=hidden;rotatable=0;points=[[0,0.5],[1,0.5]];portConstraint=eastwest;" vertex="1" parent="5fYRm7a2BufOGM3k-XQA-346">
          <mxGeometry y="130" width="160" height="26" as="geometry" />
        </mxCell>
        <mxCell id="5fYRm7a2BufOGM3k-XQA-352" value="+ field: type" style="text;strokeColor=none;fillColor=none;align=left;verticalAlign=top;spacingLeft=4;spacingRight=4;overflow=hidden;rotatable=0;points=[[0,0.5],[1,0.5]];portConstraint=eastwest;" vertex="1" parent="5fYRm7a2BufOGM3k-XQA-346">
          <mxGeometry y="156" width="160" height="26" as="geometry" />
        </mxCell>
        <mxCell id="5fYRm7a2BufOGM3k-XQA-353" value="+ field: type" style="text;strokeColor=none;fillColor=none;align=left;verticalAlign=top;spacingLeft=4;spacingRight=4;overflow=hidden;rotatable=0;points=[[0,0.5],[1,0.5]];portConstraint=eastwest;" vertex="1" parent="5fYRm7a2BufOGM3k-XQA-346">
          <mxGeometry y="182" width="160" height="24" as="geometry" />
        </mxCell>
        <mxCell id="5fYRm7a2BufOGM3k-XQA-354" value="" style="line;strokeWidth=1;fillColor=none;align=left;verticalAlign=middle;spacingTop=-1;spacingLeft=3;spacingRight=3;rotatable=0;labelPosition=right;points=[];portConstraint=eastwest;" vertex="1" parent="5fYRm7a2BufOGM3k-XQA-346">
          <mxGeometry y="206" width="160" height="8" as="geometry" />
        </mxCell>
        <mxCell id="5fYRm7a2BufOGM3k-XQA-355" value="+ method(type): type" style="text;strokeColor=none;fillColor=none;align=left;verticalAlign=top;spacingLeft=4;spacingRight=4;overflow=hidden;rotatable=0;points=[[0,0.5],[1,0.5]];portConstraint=eastwest;" vertex="1" parent="5fYRm7a2BufOGM3k-XQA-346">
          <mxGeometry y="214" width="160" height="26" as="geometry" />
        </mxCell>
        <mxCell id="5fYRm7a2BufOGM3k-XQA-356" value="" style="endArrow=none;html=1;rounded=0;exitX=1;exitY=0.5;exitDx=0;exitDy=0;" edge="1" parent="WIyWlLk6GJQsqaUBKTNV-1" source="5fYRm7a2BufOGM3k-XQA-336" target="5fYRm7a2BufOGM3k-XQA-347">
          <mxGeometry relative="1" as="geometry">
            <mxPoint x="204" y="1080" as="sourcePoint" />
            <mxPoint x="274" y="1080" as="targetPoint" />
          </mxGeometry>
        </mxCell>
        <mxCell id="5fYRm7a2BufOGM3k-XQA-357" value="1" style="resizable=0;html=1;align=left;verticalAlign=bottom;strokeColor=default;fillColor=none;" connectable="0" vertex="1" parent="5fYRm7a2BufOGM3k-XQA-356">
          <mxGeometry x="-1" relative="1" as="geometry" />
        </mxCell>
        <mxCell id="5fYRm7a2BufOGM3k-XQA-358" value="N" style="resizable=0;html=1;align=right;verticalAlign=bottom;strokeColor=default;fillColor=none;" connectable="0" vertex="1" parent="5fYRm7a2BufOGM3k-XQA-356">
          <mxGeometry x="1" relative="1" as="geometry" />
        </mxCell>
        <mxCell id="5fYRm7a2BufOGM3k-XQA-359" value="政府用户" style="swimlane;fontStyle=1;align=center;verticalAlign=top;childLayout=stackLayout;horizontal=1;startSize=26;horizontalStack=0;resizeParent=1;resizeParentMax=0;resizeLast=0;collapsible=1;marginBottom=0;" vertex="1" parent="WIyWlLk6GJQsqaUBKTNV-1">
          <mxGeometry x="560" y="1040" width="160" height="266" as="geometry" />
        </mxCell>
        <mxCell id="5fYRm7a2BufOGM3k-XQA-360" value="用户id" style="text;strokeColor=none;fillColor=none;align=left;verticalAlign=top;spacingLeft=4;spacingRight=4;overflow=hidden;rotatable=0;points=[[0,0.5],[1,0.5]];portConstraint=eastwest;" vertex="1" parent="5fYRm7a2BufOGM3k-XQA-359">
          <mxGeometry y="26" width="160" height="26" as="geometry" />
        </mxCell>
        <mxCell id="5fYRm7a2BufOGM3k-XQA-361" value="用户名" style="text;strokeColor=none;fillColor=none;align=left;verticalAlign=top;spacingLeft=4;spacingRight=4;overflow=hidden;rotatable=0;points=[[0,0.5],[1,0.5]];portConstraint=eastwest;" vertex="1" parent="5fYRm7a2BufOGM3k-XQA-359">
          <mxGeometry y="52" width="160" height="26" as="geometry" />
        </mxCell>
        <mxCell id="5fYRm7a2BufOGM3k-XQA-362" value="+ field: type" style="text;strokeColor=none;fillColor=none;align=left;verticalAlign=top;spacingLeft=4;spacingRight=4;overflow=hidden;rotatable=0;points=[[0,0.5],[1,0.5]];portConstraint=eastwest;" vertex="1" parent="5fYRm7a2BufOGM3k-XQA-359">
          <mxGeometry y="78" width="160" height="26" as="geometry" />
        </mxCell>
        <mxCell id="5fYRm7a2BufOGM3k-XQA-363" value="+ field: type" style="text;strokeColor=none;fillColor=none;align=left;verticalAlign=top;spacingLeft=4;spacingRight=4;overflow=hidden;rotatable=0;points=[[0,0.5],[1,0.5]];portConstraint=eastwest;" vertex="1" parent="5fYRm7a2BufOGM3k-XQA-359">
          <mxGeometry y="104" width="160" height="26" as="geometry" />
        </mxCell>
        <mxCell id="5fYRm7a2BufOGM3k-XQA-364" value="+ field: type" style="text;strokeColor=none;fillColor=none;align=left;verticalAlign=top;spacingLeft=4;spacingRight=4;overflow=hidden;rotatable=0;points=[[0,0.5],[1,0.5]];portConstraint=eastwest;" vertex="1" parent="5fYRm7a2BufOGM3k-XQA-359">
          <mxGeometry y="130" width="160" height="26" as="geometry" />
        </mxCell>
        <mxCell id="5fYRm7a2BufOGM3k-XQA-365" value="+ field: type" style="text;strokeColor=none;fillColor=none;align=left;verticalAlign=top;spacingLeft=4;spacingRight=4;overflow=hidden;rotatable=0;points=[[0,0.5],[1,0.5]];portConstraint=eastwest;" vertex="1" parent="5fYRm7a2BufOGM3k-XQA-359">
          <mxGeometry y="156" width="160" height="26" as="geometry" />
        </mxCell>
        <mxCell id="5fYRm7a2BufOGM3k-XQA-366" value="+ field: type" style="text;strokeColor=none;fillColor=none;align=left;verticalAlign=top;spacingLeft=4;spacingRight=4;overflow=hidden;rotatable=0;points=[[0,0.5],[1,0.5]];portConstraint=eastwest;" vertex="1" parent="5fYRm7a2BufOGM3k-XQA-359">
          <mxGeometry y="182" width="160" height="26" as="geometry" />
        </mxCell>
        <mxCell id="5fYRm7a2BufOGM3k-XQA-367" value="+ field: type" style="text;strokeColor=none;fillColor=none;align=left;verticalAlign=top;spacingLeft=4;spacingRight=4;overflow=hidden;rotatable=0;points=[[0,0.5],[1,0.5]];portConstraint=eastwest;" vertex="1" parent="5fYRm7a2BufOGM3k-XQA-359">
          <mxGeometry y="208" width="160" height="24" as="geometry" />
        </mxCell>
        <mxCell id="5fYRm7a2BufOGM3k-XQA-368" value="" style="line;strokeWidth=1;fillColor=none;align=left;verticalAlign=middle;spacingTop=-1;spacingLeft=3;spacingRight=3;rotatable=0;labelPosition=right;points=[];portConstraint=eastwest;" vertex="1" parent="5fYRm7a2BufOGM3k-XQA-359">
          <mxGeometry y="232" width="160" height="8" as="geometry" />
        </mxCell>
        <mxCell id="5fYRm7a2BufOGM3k-XQA-369" value="+ method(type): type" style="text;strokeColor=none;fillColor=none;align=left;verticalAlign=top;spacingLeft=4;spacingRight=4;overflow=hidden;rotatable=0;points=[[0,0.5],[1,0.5]];portConstraint=eastwest;" vertex="1" parent="5fYRm7a2BufOGM3k-XQA-359">
          <mxGeometry y="240" width="160" height="26" as="geometry" />
        </mxCell>
        <mxCell id="5fYRm7a2BufOGM3k-XQA-370" value="" style="endArrow=none;html=1;rounded=0;entryX=0;entryY=0.5;entryDx=0;entryDy=0;" edge="1" parent="WIyWlLk6GJQsqaUBKTNV-1" source="5fYRm7a2BufOGM3k-XQA-347" target="5fYRm7a2BufOGM3k-XQA-360">
          <mxGeometry relative="1" as="geometry">
            <mxPoint x="484" y="1068.62" as="sourcePoint" />
            <mxPoint x="624.0000000000002" y="1068.62" as="targetPoint" />
          </mxGeometry>
        </mxCell>
        <mxCell id="5fYRm7a2BufOGM3k-XQA-371" value="1" style="resizable=0;html=1;align=left;verticalAlign=bottom;strokeColor=default;fillColor=none;" connectable="0" vertex="1" parent="5fYRm7a2BufOGM3k-XQA-370">
          <mxGeometry x="-1" relative="1" as="geometry" />
        </mxCell>
        <mxCell id="5fYRm7a2BufOGM3k-XQA-372" value="N" style="resizable=0;html=1;align=right;verticalAlign=bottom;strokeColor=default;fillColor=none;" connectable="0" vertex="1" parent="5fYRm7a2BufOGM3k-XQA-370">
          <mxGeometry x="1" relative="1" as="geometry" />
        </mxCell>
        <mxCell id="5fYRm7a2BufOGM3k-XQA-376" value="" style="endArrow=none;html=1;rounded=0;strokeColor=#FF6666;" edge="1" parent="WIyWlLk6GJQsqaUBKTNV-1" source="5fYRm7a2BufOGM3k-XQA-336" target="5fYRm7a2BufOGM3k-XQA-88">
          <mxGeometry relative="1" as="geometry">
            <mxPoint x="220" y="759" as="sourcePoint" />
            <mxPoint x="345.1714285714286" y="422.0000000000001" as="targetPoint" />
          </mxGeometry>
        </mxCell>
        <mxCell id="5fYRm7a2BufOGM3k-XQA-377" value="1" style="resizable=0;html=1;align=left;verticalAlign=bottom;fontColor=#FF6666;" connectable="0" vertex="1" parent="5fYRm7a2BufOGM3k-XQA-376">
          <mxGeometry x="-1" relative="1" as="geometry" />
        </mxCell>
        <mxCell id="5fYRm7a2BufOGM3k-XQA-378" value="N" style="resizable=0;html=1;align=right;verticalAlign=bottom;fontColor=#FF6666;" connectable="0" vertex="1" parent="5fYRm7a2BufOGM3k-XQA-376">
          <mxGeometry x="1" relative="1" as="geometry" />
        </mxCell>
        <mxCell id="5fYRm7a2BufOGM3k-XQA-379" value="公司" style="swimlane;fontStyle=1;align=center;verticalAlign=top;childLayout=stackLayout;horizontal=1;startSize=26;horizontalStack=0;resizeParent=1;resizeParentMax=0;resizeLast=0;collapsible=1;marginBottom=0;" vertex="1" parent="WIyWlLk6GJQsqaUBKTNV-1">
          <mxGeometry x="-160" y="720" width="160" height="266" as="geometry" />
        </mxCell>
        <mxCell id="5fYRm7a2BufOGM3k-XQA-380" value="公司id" style="text;strokeColor=default;fillColor=none;align=left;verticalAlign=top;spacingLeft=4;spacingRight=4;overflow=hidden;rotatable=0;points=[[0,0.5],[1,0.5]];portConstraint=eastwest;" vertex="1" parent="5fYRm7a2BufOGM3k-XQA-379">
          <mxGeometry y="26" width="160" height="26" as="geometry" />
        </mxCell>
        <mxCell id="5fYRm7a2BufOGM3k-XQA-381" value="+ field: type" style="text;strokeColor=none;fillColor=none;align=left;verticalAlign=top;spacingLeft=4;spacingRight=4;overflow=hidden;rotatable=0;points=[[0,0.5],[1,0.5]];portConstraint=eastwest;" vertex="1" parent="5fYRm7a2BufOGM3k-XQA-379">
          <mxGeometry y="52" width="160" height="26" as="geometry" />
        </mxCell>
        <mxCell id="5fYRm7a2BufOGM3k-XQA-382" value="+ field: type" style="text;strokeColor=none;fillColor=none;align=left;verticalAlign=top;spacingLeft=4;spacingRight=4;overflow=hidden;rotatable=0;points=[[0,0.5],[1,0.5]];portConstraint=eastwest;" vertex="1" parent="5fYRm7a2BufOGM3k-XQA-379">
          <mxGeometry y="78" width="160" height="26" as="geometry" />
        </mxCell>
        <mxCell id="5fYRm7a2BufOGM3k-XQA-383" value="+ field: type" style="text;strokeColor=none;fillColor=none;align=left;verticalAlign=top;spacingLeft=4;spacingRight=4;overflow=hidden;rotatable=0;points=[[0,0.5],[1,0.5]];portConstraint=eastwest;" vertex="1" parent="5fYRm7a2BufOGM3k-XQA-379">
          <mxGeometry y="104" width="160" height="26" as="geometry" />
        </mxCell>
        <mxCell id="5fYRm7a2BufOGM3k-XQA-384" value="+ field: type" style="text;strokeColor=none;fillColor=none;align=left;verticalAlign=top;spacingLeft=4;spacingRight=4;overflow=hidden;rotatable=0;points=[[0,0.5],[1,0.5]];portConstraint=eastwest;" vertex="1" parent="5fYRm7a2BufOGM3k-XQA-379">
          <mxGeometry y="130" width="160" height="26" as="geometry" />
        </mxCell>
        <mxCell id="5fYRm7a2BufOGM3k-XQA-385" value="+ field: type" style="text;strokeColor=none;fillColor=none;align=left;verticalAlign=top;spacingLeft=4;spacingRight=4;overflow=hidden;rotatable=0;points=[[0,0.5],[1,0.5]];portConstraint=eastwest;" vertex="1" parent="5fYRm7a2BufOGM3k-XQA-379">
          <mxGeometry y="156" width="160" height="26" as="geometry" />
        </mxCell>
        <mxCell id="5fYRm7a2BufOGM3k-XQA-386" value="+ field: type" style="text;strokeColor=none;fillColor=none;align=left;verticalAlign=top;spacingLeft=4;spacingRight=4;overflow=hidden;rotatable=0;points=[[0,0.5],[1,0.5]];portConstraint=eastwest;" vertex="1" parent="5fYRm7a2BufOGM3k-XQA-379">
          <mxGeometry y="182" width="160" height="26" as="geometry" />
        </mxCell>
        <mxCell id="5fYRm7a2BufOGM3k-XQA-387" value="+ field: type" style="text;strokeColor=none;fillColor=none;align=left;verticalAlign=top;spacingLeft=4;spacingRight=4;overflow=hidden;rotatable=0;points=[[0,0.5],[1,0.5]];portConstraint=eastwest;" vertex="1" parent="5fYRm7a2BufOGM3k-XQA-379">
          <mxGeometry y="208" width="160" height="24" as="geometry" />
        </mxCell>
        <mxCell id="5fYRm7a2BufOGM3k-XQA-388" value="" style="line;strokeWidth=1;fillColor=none;align=left;verticalAlign=middle;spacingTop=-1;spacingLeft=3;spacingRight=3;rotatable=0;labelPosition=right;points=[];portConstraint=eastwest;" vertex="1" parent="5fYRm7a2BufOGM3k-XQA-379">
          <mxGeometry y="232" width="160" height="8" as="geometry" />
        </mxCell>
        <mxCell id="5fYRm7a2BufOGM3k-XQA-389" value="+ method(type): type" style="text;strokeColor=none;fillColor=none;align=left;verticalAlign=top;spacingLeft=4;spacingRight=4;overflow=hidden;rotatable=0;points=[[0,0.5],[1,0.5]];portConstraint=eastwest;" vertex="1" parent="5fYRm7a2BufOGM3k-XQA-379">
          <mxGeometry y="240" width="160" height="26" as="geometry" />
        </mxCell>
        <mxCell id="5fYRm7a2BufOGM3k-XQA-390" value="" style="endArrow=none;html=1;rounded=0;entryX=0.938;entryY=0.5;entryDx=0;entryDy=0;entryPerimeter=0;exitX=-0.007;exitY=0.945;exitDx=0;exitDy=0;exitPerimeter=0;" edge="1" parent="WIyWlLk6GJQsqaUBKTNV-1" source="5fYRm7a2BufOGM3k-XQA-88" target="5fYRm7a2BufOGM3k-XQA-380">
          <mxGeometry relative="1" as="geometry">
            <mxPoint x="60" y="759" as="sourcePoint" />
            <mxPoint x="-75.24691358024688" y="446.0000000000001" as="targetPoint" />
          </mxGeometry>
        </mxCell>
        <mxCell id="5fYRm7a2BufOGM3k-XQA-391" value="N" style="resizable=0;html=1;align=left;verticalAlign=bottom;fontColor=#FF6666;" connectable="0" vertex="1" parent="5fYRm7a2BufOGM3k-XQA-390">
          <mxGeometry x="-1" relative="1" as="geometry" />
        </mxCell>
        <mxCell id="5fYRm7a2BufOGM3k-XQA-392" value="1" style="resizable=0;html=1;align=right;verticalAlign=bottom;" connectable="0" vertex="1" parent="5fYRm7a2BufOGM3k-XQA-390">
          <mxGeometry x="1" relative="1" as="geometry" />
        </mxCell>
        <mxCell id="5fYRm7a2BufOGM3k-XQA-393" value="公司用户" style="swimlane;fontStyle=1;align=center;verticalAlign=top;childLayout=stackLayout;horizontal=1;startSize=26;horizontalStack=0;resizeParent=1;resizeParentMax=0;resizeLast=0;collapsible=1;marginBottom=0;" vertex="1" parent="WIyWlLk6GJQsqaUBKTNV-1">
          <mxGeometry x="-160" y="1040" width="160" height="266" as="geometry" />
        </mxCell>
        <mxCell id="5fYRm7a2BufOGM3k-XQA-394" value="公司用户id" style="text;strokeColor=default;fillColor=none;align=left;verticalAlign=top;spacingLeft=4;spacingRight=4;overflow=hidden;rotatable=0;points=[[0,0.5],[1,0.5]];portConstraint=eastwest;" vertex="1" parent="5fYRm7a2BufOGM3k-XQA-393">
          <mxGeometry y="26" width="160" height="26" as="geometry" />
        </mxCell>
        <mxCell id="5fYRm7a2BufOGM3k-XQA-395" value="+ field: type" style="text;strokeColor=none;fillColor=none;align=left;verticalAlign=top;spacingLeft=4;spacingRight=4;overflow=hidden;rotatable=0;points=[[0,0.5],[1,0.5]];portConstraint=eastwest;" vertex="1" parent="5fYRm7a2BufOGM3k-XQA-393">
          <mxGeometry y="52" width="160" height="26" as="geometry" />
        </mxCell>
        <mxCell id="5fYRm7a2BufOGM3k-XQA-396" value="+ field: type" style="text;strokeColor=none;fillColor=none;align=left;verticalAlign=top;spacingLeft=4;spacingRight=4;overflow=hidden;rotatable=0;points=[[0,0.5],[1,0.5]];portConstraint=eastwest;" vertex="1" parent="5fYRm7a2BufOGM3k-XQA-393">
          <mxGeometry y="78" width="160" height="26" as="geometry" />
        </mxCell>
        <mxCell id="5fYRm7a2BufOGM3k-XQA-397" value="+ field: type" style="text;strokeColor=none;fillColor=none;align=left;verticalAlign=top;spacingLeft=4;spacingRight=4;overflow=hidden;rotatable=0;points=[[0,0.5],[1,0.5]];portConstraint=eastwest;" vertex="1" parent="5fYRm7a2BufOGM3k-XQA-393">
          <mxGeometry y="104" width="160" height="26" as="geometry" />
        </mxCell>
        <mxCell id="5fYRm7a2BufOGM3k-XQA-398" value="+ field: type" style="text;strokeColor=none;fillColor=none;align=left;verticalAlign=top;spacingLeft=4;spacingRight=4;overflow=hidden;rotatable=0;points=[[0,0.5],[1,0.5]];portConstraint=eastwest;" vertex="1" parent="5fYRm7a2BufOGM3k-XQA-393">
          <mxGeometry y="130" width="160" height="26" as="geometry" />
        </mxCell>
        <mxCell id="5fYRm7a2BufOGM3k-XQA-399" value="+ field: type" style="text;strokeColor=none;fillColor=none;align=left;verticalAlign=top;spacingLeft=4;spacingRight=4;overflow=hidden;rotatable=0;points=[[0,0.5],[1,0.5]];portConstraint=eastwest;" vertex="1" parent="5fYRm7a2BufOGM3k-XQA-393">
          <mxGeometry y="156" width="160" height="26" as="geometry" />
        </mxCell>
        <mxCell id="5fYRm7a2BufOGM3k-XQA-400" value="+ field: type" style="text;strokeColor=none;fillColor=none;align=left;verticalAlign=top;spacingLeft=4;spacingRight=4;overflow=hidden;rotatable=0;points=[[0,0.5],[1,0.5]];portConstraint=eastwest;" vertex="1" parent="5fYRm7a2BufOGM3k-XQA-393">
          <mxGeometry y="182" width="160" height="26" as="geometry" />
        </mxCell>
        <mxCell id="5fYRm7a2BufOGM3k-XQA-401" value="+ field: type" style="text;strokeColor=none;fillColor=none;align=left;verticalAlign=top;spacingLeft=4;spacingRight=4;overflow=hidden;rotatable=0;points=[[0,0.5],[1,0.5]];portConstraint=eastwest;" vertex="1" parent="5fYRm7a2BufOGM3k-XQA-393">
          <mxGeometry y="208" width="160" height="24" as="geometry" />
        </mxCell>
        <mxCell id="5fYRm7a2BufOGM3k-XQA-402" value="" style="line;strokeWidth=1;fillColor=none;align=left;verticalAlign=middle;spacingTop=-1;spacingLeft=3;spacingRight=3;rotatable=0;labelPosition=right;points=[];portConstraint=eastwest;" vertex="1" parent="5fYRm7a2BufOGM3k-XQA-393">
          <mxGeometry y="232" width="160" height="8" as="geometry" />
        </mxCell>
        <mxCell id="5fYRm7a2BufOGM3k-XQA-403" value="+ method(type): type" style="text;strokeColor=none;fillColor=none;align=left;verticalAlign=top;spacingLeft=4;spacingRight=4;overflow=hidden;rotatable=0;points=[[0,0.5],[1,0.5]];portConstraint=eastwest;" vertex="1" parent="5fYRm7a2BufOGM3k-XQA-393">
          <mxGeometry y="240" width="160" height="26" as="geometry" />
        </mxCell>
        <mxCell id="5fYRm7a2BufOGM3k-XQA-407" value="" style="endArrow=none;html=1;rounded=0;exitX=0.218;exitY=-0.013;exitDx=0;exitDy=0;exitPerimeter=0;" edge="1" parent="WIyWlLk6GJQsqaUBKTNV-1" source="5fYRm7a2BufOGM3k-XQA-394" target="5fYRm7a2BufOGM3k-XQA-380">
          <mxGeometry relative="1" as="geometry">
            <mxPoint x="78.87999999999988" y="770.5699999999999" as="sourcePoint" />
            <mxPoint x="-90" y="760" as="targetPoint" />
          </mxGeometry>
        </mxCell>
        <mxCell id="5fYRm7a2BufOGM3k-XQA-408" value="N" style="resizable=0;html=1;align=left;verticalAlign=bottom;fontColor=#FF3333;" connectable="0" vertex="1" parent="5fYRm7a2BufOGM3k-XQA-407">
          <mxGeometry x="-1" relative="1" as="geometry" />
        </mxCell>
        <mxCell id="5fYRm7a2BufOGM3k-XQA-409" value="1" style="resizable=0;html=1;align=right;verticalAlign=bottom;" connectable="0" vertex="1" parent="5fYRm7a2BufOGM3k-XQA-407">
          <mxGeometry x="1" relative="1" as="geometry" />
        </mxCell>
        <mxCell id="5fYRm7a2BufOGM3k-XQA-413" value="" style="endArrow=none;html=1;rounded=0;exitX=0.256;exitY=-0.051;exitDx=0;exitDy=0;exitPerimeter=0;entryX=0.702;entryY=-0.013;entryDx=0;entryDy=0;entryPerimeter=0;" edge="1" parent="WIyWlLk6GJQsqaUBKTNV-1" source="5fYRm7a2BufOGM3k-XQA-89" target="5fYRm7a2BufOGM3k-XQA-394">
          <mxGeometry relative="1" as="geometry">
            <mxPoint x="50" y="850" as="sourcePoint" />
            <mxPoint x="-87.61965579595608" y="772" as="targetPoint" />
          </mxGeometry>
        </mxCell>
        <mxCell id="5fYRm7a2BufOGM3k-XQA-414" value="N" style="resizable=0;html=1;align=left;verticalAlign=bottom;fontColor=#FF3333;" connectable="0" vertex="1" parent="5fYRm7a2BufOGM3k-XQA-413">
          <mxGeometry x="-1" relative="1" as="geometry" />
        </mxCell>
        <mxCell id="5fYRm7a2BufOGM3k-XQA-415" value="N" style="resizable=0;html=1;align=right;verticalAlign=bottom;" connectable="0" vertex="1" parent="5fYRm7a2BufOGM3k-XQA-413">
          <mxGeometry x="1" relative="1" as="geometry" />
        </mxCell>
        <mxCell id="5fYRm7a2BufOGM3k-XQA-416" value="新闻" style="swimlane;fontStyle=1;align=center;verticalAlign=top;childLayout=stackLayout;horizontal=1;startSize=26;horizontalStack=0;resizeParent=1;resizeParentMax=0;resizeLast=0;collapsible=1;marginBottom=0;" vertex="1" parent="WIyWlLk6GJQsqaUBKTNV-1">
          <mxGeometry x="800" y="1040" width="160" height="266" as="geometry" />
        </mxCell>
        <mxCell id="5fYRm7a2BufOGM3k-XQA-417" value="新闻id" style="text;strokeColor=none;fillColor=none;align=left;verticalAlign=top;spacingLeft=4;spacingRight=4;overflow=hidden;rotatable=0;points=[[0,0.5],[1,0.5]];portConstraint=eastwest;" vertex="1" parent="5fYRm7a2BufOGM3k-XQA-416">
          <mxGeometry y="26" width="160" height="26" as="geometry" />
        </mxCell>
        <mxCell id="5fYRm7a2BufOGM3k-XQA-418" value="新闻标题" style="text;strokeColor=none;fillColor=none;align=left;verticalAlign=top;spacingLeft=4;spacingRight=4;overflow=hidden;rotatable=0;points=[[0,0.5],[1,0.5]];portConstraint=eastwest;" vertex="1" parent="5fYRm7a2BufOGM3k-XQA-416">
          <mxGeometry y="52" width="160" height="26" as="geometry" />
        </mxCell>
        <mxCell id="5fYRm7a2BufOGM3k-XQA-419" value="新闻内容" style="text;strokeColor=none;fillColor=none;align=left;verticalAlign=top;spacingLeft=4;spacingRight=4;overflow=hidden;rotatable=0;points=[[0,0.5],[1,0.5]];portConstraint=eastwest;" vertex="1" parent="5fYRm7a2BufOGM3k-XQA-416">
          <mxGeometry y="78" width="160" height="26" as="geometry" />
        </mxCell>
        <mxCell id="5fYRm7a2BufOGM3k-XQA-420" value="+ field: type" style="text;strokeColor=none;fillColor=none;align=left;verticalAlign=top;spacingLeft=4;spacingRight=4;overflow=hidden;rotatable=0;points=[[0,0.5],[1,0.5]];portConstraint=eastwest;" vertex="1" parent="5fYRm7a2BufOGM3k-XQA-416">
          <mxGeometry y="104" width="160" height="26" as="geometry" />
        </mxCell>
        <mxCell id="5fYRm7a2BufOGM3k-XQA-421" value="+ field: type" style="text;strokeColor=none;fillColor=none;align=left;verticalAlign=top;spacingLeft=4;spacingRight=4;overflow=hidden;rotatable=0;points=[[0,0.5],[1,0.5]];portConstraint=eastwest;" vertex="1" parent="5fYRm7a2BufOGM3k-XQA-416">
          <mxGeometry y="130" width="160" height="26" as="geometry" />
        </mxCell>
        <mxCell id="5fYRm7a2BufOGM3k-XQA-422" value="+ field: type" style="text;strokeColor=none;fillColor=none;align=left;verticalAlign=top;spacingLeft=4;spacingRight=4;overflow=hidden;rotatable=0;points=[[0,0.5],[1,0.5]];portConstraint=eastwest;" vertex="1" parent="5fYRm7a2BufOGM3k-XQA-416">
          <mxGeometry y="156" width="160" height="26" as="geometry" />
        </mxCell>
        <mxCell id="5fYRm7a2BufOGM3k-XQA-423" value="+ field: type" style="text;strokeColor=none;fillColor=none;align=left;verticalAlign=top;spacingLeft=4;spacingRight=4;overflow=hidden;rotatable=0;points=[[0,0.5],[1,0.5]];portConstraint=eastwest;" vertex="1" parent="5fYRm7a2BufOGM3k-XQA-416">
          <mxGeometry y="182" width="160" height="26" as="geometry" />
        </mxCell>
        <mxCell id="5fYRm7a2BufOGM3k-XQA-424" value="+ field: type" style="text;strokeColor=none;fillColor=none;align=left;verticalAlign=top;spacingLeft=4;spacingRight=4;overflow=hidden;rotatable=0;points=[[0,0.5],[1,0.5]];portConstraint=eastwest;" vertex="1" parent="5fYRm7a2BufOGM3k-XQA-416">
          <mxGeometry y="208" width="160" height="24" as="geometry" />
        </mxCell>
        <mxCell id="5fYRm7a2BufOGM3k-XQA-425" value="" style="line;strokeWidth=1;fillColor=none;align=left;verticalAlign=middle;spacingTop=-1;spacingLeft=3;spacingRight=3;rotatable=0;labelPosition=right;points=[];portConstraint=eastwest;" vertex="1" parent="5fYRm7a2BufOGM3k-XQA-416">
          <mxGeometry y="232" width="160" height="8" as="geometry" />
        </mxCell>
        <mxCell id="5fYRm7a2BufOGM3k-XQA-426" value="+ method(type): type" style="text;strokeColor=none;fillColor=none;align=left;verticalAlign=top;spacingLeft=4;spacingRight=4;overflow=hidden;rotatable=0;points=[[0,0.5],[1,0.5]];portConstraint=eastwest;" vertex="1" parent="5fYRm7a2BufOGM3k-XQA-416">
          <mxGeometry y="240" width="160" height="26" as="geometry" />
        </mxCell>
        <mxCell id="5fYRm7a2BufOGM3k-XQA-437" value="" style="endArrow=none;html=1;rounded=0;fontColor=#FF3333;strokeColor=#FF3333;entryX=0.001;entryY=0.75;entryDx=0;entryDy=0;entryPerimeter=0;exitX=0.997;exitY=0.436;exitDx=0;exitDy=0;exitPerimeter=0;" edge="1" parent="WIyWlLk6GJQsqaUBKTNV-1" source="5fYRm7a2BufOGM3k-XQA-360" target="5fYRm7a2BufOGM3k-XQA-417">
          <mxGeometry relative="1" as="geometry">
            <mxPoint x="686" y="1088.58" as="sourcePoint" />
            <mxPoint x="846" y="1088.58" as="targetPoint" />
          </mxGeometry>
        </mxCell>
        <mxCell id="5fYRm7a2BufOGM3k-XQA-438" value="1" style="resizable=0;html=1;align=left;verticalAlign=bottom;fontColor=#FF3333;strokeColor=default;fillColor=none;" connectable="0" vertex="1" parent="5fYRm7a2BufOGM3k-XQA-437">
          <mxGeometry x="-1" relative="1" as="geometry" />
        </mxCell>
        <mxCell id="5fYRm7a2BufOGM3k-XQA-439" value="N" style="resizable=0;html=1;align=right;verticalAlign=bottom;fontColor=#FF3333;strokeColor=default;fillColor=none;" connectable="0" vertex="1" parent="5fYRm7a2BufOGM3k-XQA-437">
          <mxGeometry x="1" relative="1" as="geometry" />
        </mxCell>
      </root>
    </mxGraphModel>
  </diagram>
</mxfile>
